<?xml version="1.0" encoding="UTF-8"?>
<svg id="Logo" xmlns="http://www.w3.org/2000/svg" viewBox="0 0 1920 1080">
  <defs>
    <style>
      .cls-1 {
        fill: #218c46;
      }

      .cls-2 {
        fill: #163e69;
      }

      .cls-3 {
        fill: #d79528;
      }
    </style>
  </defs>
  <g>
    <path class="cls-2" d="M645.87,623.13v-156.75h69.79c27.26,0,43.95,16.45,43.95,39.95,0,19.74-13.16,32.9-27.5,35.96,16.69,2.58,30.55,19.74,30.55,38.54,0,25.15-16.68,42.3-45.35,42.3h-71.44ZM665.37,534.3h47c17.62,0,27.03-10.81,27.03-25.15s-9.4-25.38-27.03-25.38h-47v50.53ZM665.37,605.74h47.94c18.33,0,29.14-10.34,29.14-27.02,0-14.33-9.87-27.03-29.14-27.03h-47.94v54.05Z"/>
    <path class="cls-2" d="M788.98,623.13v-156.75h19.5v139.36h72.85v17.39h-92.36Z"/>
    <path class="cls-2" d="M908.83,623.13v-156.75h102.7v17.39h-83.19v50.53h81.54v17.39h-81.54v54.05h83.19v17.39h-102.7Z"/>
    <path class="cls-2" d="M1037.84,623.13v-156.75h102.7v17.39h-83.19v50.53h81.54v17.39h-81.54v54.05h83.19v17.39h-102.7Z"/>
    <path class="cls-2" d="M1160.51,544.87c0-48.17,35.48-81.08,79.9-81.08,28.44,0,47.71,13.4,60.16,31.02l-16.45,9.17c-8.93-13.16-25.15-22.79-43.71-22.79-33.6,0-59.69,26.32-59.69,63.69s26.08,63.69,59.69,63.69c18.57,0,34.78-9.4,43.71-22.8l16.68,9.17c-13.16,17.86-31.96,31.02-60.4,31.02-44.42,0-79.9-32.9-79.9-81.08Z"/>
    <path class="cls-2" d="M1442.27,623.13l-13.87-34.78h-79.43l-13.86,34.78h-21.62l62.98-156.75h24.21l63.22,156.75h-21.62ZM1388.69,483.77l-34.08,87.19h67.92l-33.84-87.19Z"/>
    <path class="cls-2" d="M1622.98,623.13v-130.43l-53.34,130.43h-7.99l-53.11-130.43v130.43h-19.5v-156.75h27.96l48.65,119.38,48.88-119.38h27.96v156.75h-19.5Z"/>
  </g>
  <g>
    <g>
      <polygon class="cls-2" points="401.03 744.34 229.14 645.1 229.14 554.84 307.24 599.94 307.24 599.97 400.98 654.09 401.03 744.34"/>
      <polygon class="cls-2" points="401.03 632.31 328.66 590.53 328.66 504.08 401.03 545.86 401.03 632.31"/>
      <polygon class="cls-2" points="229.19 446.62 229.19 534.96 307.29 580.06 307.29 491.74 229.19 446.62"/>
    </g>
    <g>
      <polygon class="cls-3" points="494.76 491.74 494.76 599.97 494.75 599.98 494.75 690.25 572.97 645.1 572.97 446.62 494.76 491.74"/>
      <polygon class="cls-3" points="401.03 632.31 473.39 590.53 473.39 504.08 401.03 545.86 401.03 632.31"/>
      <polygon class="cls-3" points="401.13 744.34 477.58 700.2 477.58 609.92 401.08 654.09 401.13 744.34"/>
    </g>
    <g>
      <polygon class="cls-1" points="307.24 491.74 400.98 437.63 401.01 437.64 479.19 392.5 401.03 347.38 229.14 446.62 307.24 491.74"/>
      <polygon class="cls-1" points="572.97 446.62 496.46 402.45 418.27 447.58 494.76 491.74 572.97 446.62"/>
      <polygon class="cls-1" points="473.39 504.08 401.03 545.86 328.66 504.08 401.03 462.3 473.39 504.08"/>
    </g>
  </g>
</svg>